<svg xmlns="http://www.w3.org/2000/svg" viewBox="15 -146.20000000000002 996.6000000000001 148.4" width="996.6000000000001" height="148.4">
  <path d="M15-35.80L15-136Q15-138.60 16.10-139.40Q17.20-140.20 19.60-140.20L19.60-140.20L34.60-140.20Q37.40-140.20 38.40-139.50Q39.40-138.80 39.40-136L39.40-136L39.40-35.80Q39.40-28 43.30-24.80Q47.20-21.60 54-21.60L54-21.60L107.60-21.60Q109.80-21.60 110.40-20.80Q111-20 111-17.80L111-17.80L111-3.80Q111-1.80 110.40-0.90Q109.80 0 107.60 0L107.60 0L50.20 0Q39.80 0 33-3Q26.20-6 22.20-11Q18.20-16 16.60-22.40Q15-28.80 15-35.80L15-35.80ZM176-17.80L176-17.80Q178.20-17.80 182.30-17.90Q186.40-18 191.80-19L191.80-19L191.80-101.80Q191.80-104 192.60-104.60Q193.40-105.20 195.60-105.20L195.60-105.20L211.20-105.20Q213.20-105.20 214.10-104.60Q215-104 215-101.80L215-101.80L215-16.20Q215-9.20 211.80-5.10Q208.60-1 201.60 0.40L201.60 0.40Q199 0.80 195.60 1.20Q192.20 1.60 188.60 1.80Q185 2 181.60 2.10Q178.20 2.20 175.60 2.20L175.60 2.20Q162 2.20 152.60-0.60Q143.20-3.40 137.40-9.50Q131.60-15.60 128.90-25.40Q126.20-35.20 126.20-49L126.20-49L126.20-101.80Q126.20-104 127-104.60Q127.80-105.20 130-105.20L130-105.20L145.60-105.20Q147.60-105.20 148.50-104.60Q149.40-104 149.40-101.80L149.40-101.80L149.40-48.60Q149.40-40.80 150.40-35Q151.40-29.20 154.30-25.40Q157.20-21.60 162.40-19.70Q167.60-17.80 176-17.80ZM286.80-18.20L286.80-18.20Q293.20-18.20 299.60-19.80Q306-21.40 310.20-23.40L310.20-23.40Q312.40-24.40 313.30-24Q314.20-23.60 314.80-22L314.80-22L319.80-10.40Q321.80-7.20 318.60-5.40L318.60-5.40Q310.40-0.80 300.90 0.70Q291.40 2.20 283.20 2.20L283.20 2.20Q260.80 2.20 248.90-11.40Q237-25 237-51.80L237-51.80Q237-64.40 240.40-74.70Q243.80-85 250.10-92.30Q256.40-99.60 265.30-103.50Q274.20-107.40 285.40-107.40L285.40-107.40Q293.60-107.40 301.30-105.70Q309-104 315.80-100.40L315.80-100.40Q317.60-99.40 318-98.40Q318.40-97.40 317.40-95.40L317.40-95.40L312.40-83.60Q311.60-82 310.70-81.60Q309.80-81.20 307.40-82.20L307.40-82.20Q302.60-84 297.40-85.30Q292.20-86.60 286.40-86.60L286.40-86.60Q279.60-86.60 274.70-83.70Q269.80-80.80 266.70-76Q263.60-71.20 262.20-64.90Q260.80-58.60 260.80-51.80L260.80-51.80Q260.80-44.80 262-38.70Q263.20-32.60 266.10-28Q269-23.40 274-20.80Q279-18.20 286.80-18.20ZM364.60-3.40L364.60-3.40Q364.60-1.20 363.70-0.60Q362.80 0 360.60 0L360.60 0L345.20 0Q343.20 0 342.30-0.60Q341.40-1.20 341.40-3.40L341.40-3.40L341.40-89.20Q341.40-97.20 344.10-101.10Q346.80-105 355.40-106.20L355.40-106.20Q359-106.60 362.70-106.90Q366.40-107.20 370.20-107.20L370.20-107.20Q382.40-107.20 393.70-104Q405-100.80 414.20-93.20L414.20-93.20Q415.60-92.20 415.50-91.30Q415.40-90.40 414.80-89.40L414.80-89.40L405.60-76.20Q404.60-74.60 403.60-74.80Q402.60-75 401.20-76L401.20-76Q395.40-81 388.70-83.70Q382-86.40 374-86.40L374-86.40Q371.60-86.40 369.20-86.20Q366.80-86 364.60-85.60L364.60-85.60L364.60-3.40ZM513-71.40L513-11.40Q513-6.60 509.20-4.80L509.20-4.80Q504.80-2.80 499.70-1.40Q494.60 0 489.20 0.80Q483.80 1.60 478.50 1.90Q473.20 2.20 468.40 2.20L468.40 2.20Q455.20 2.20 446.50-0.50Q437.80-3.20 432.70-7.70Q427.60-12.20 425.60-18.30Q423.60-24.40 423.60-31.20L423.60-31.20Q423.60-38.20 425.90-44.70Q428.20-51.20 433.40-56.10Q438.60-61 446.90-64Q455.20-67 467.20-67L467.20-67L489.60-67L489.60-70.40Q489.60-74.20 488.80-77.40Q488-80.60 485.70-83Q483.40-85.40 479.40-86.70Q475.40-88 469-88L469-88Q462.20-88 454.20-86.80Q446.20-85.60 441.20-84L441.20-84Q439-83.40 438-83.80Q437-84.20 436.60-86L436.60-86L433.80-97.40Q433-100.60 435.60-101.60L435.60-101.60Q444-104.80 454-106.10Q464-107.40 472.80-107.40L472.80-107.40Q493.60-107.40 503.30-98.20Q513-89 513-71.40L513-71.40ZM489.40-19.80L489.40-49.20L470.20-49.20Q466.80-49.20 462.90-48.80Q459-48.40 455.50-46.60Q452-44.80 449.70-41.40Q447.40-38 447.40-32L447.40-32Q447.40-23.40 453.20-20Q459-16.60 468.60-16.60L468.60-16.60Q470-16.60 472.50-16.70Q475-16.80 477.80-17.20Q480.60-17.60 483.70-18.20Q486.80-18.80 489.40-19.80L489.40-19.80ZM597-35.80L597-136Q597-138.60 598.10-139.40Q599.20-140.20 601.60-140.20L601.60-140.20L616.60-140.20Q619.40-140.20 620.40-139.50Q621.40-138.80 621.40-136L621.40-136L621.40-35.80Q621.40-28 625.30-24.80Q629.20-21.60 636-21.60L636-21.60L689.60-21.60Q691.80-21.60 692.40-20.80Q693-20 693-17.80L693-17.80L693-3.80Q693-1.80 692.40-0.90Q691.80 0 689.60 0L689.60 0L632.20 0Q621.80 0 615-3Q608.20-6 604.20-11Q600.20-16 598.60-22.40Q597-28.80 597-35.80L597-35.80ZM793.60-71.40L793.60-11.40Q793.60-6.60 789.80-4.80L789.80-4.80Q785.40-2.80 780.30-1.40Q775.20 0 769.80 0.80Q764.40 1.60 759.10 1.90Q753.80 2.20 749 2.20L749 2.20Q735.80 2.20 727.10-0.50Q718.40-3.20 713.30-7.70Q708.20-12.20 706.20-18.30Q704.20-24.40 704.20-31.20L704.20-31.20Q704.20-38.20 706.50-44.70Q708.80-51.20 714-56.10Q719.20-61 727.50-64Q735.80-67 747.80-67L747.80-67L770.20-67L770.20-70.40Q770.20-74.20 769.40-77.40Q768.60-80.60 766.30-83Q764-85.40 760-86.70Q756-88 749.60-88L749.60-88Q742.80-88 734.80-86.80Q726.80-85.60 721.80-84L721.80-84Q719.60-83.40 718.60-83.80Q717.60-84.20 717.20-86L717.20-86L714.40-97.40Q713.60-100.60 716.20-101.60L716.20-101.60Q724.60-104.80 734.60-106.10Q744.60-107.40 753.40-107.40L753.40-107.40Q774.20-107.40 783.90-98.20Q793.60-89 793.60-71.40L793.60-71.40ZM770-19.80L770-49.20L750.80-49.20Q747.40-49.20 743.50-48.80Q739.60-48.40 736.10-46.60Q732.60-44.80 730.30-41.40Q728-38 728-32L728-32Q728-23.40 733.80-20Q739.60-16.60 749.20-16.60L749.20-16.60Q750.60-16.60 753.10-16.70Q755.60-16.80 758.40-17.20Q761.20-17.60 764.30-18.20Q767.40-18.80 770-19.80L770-19.80ZM913.80-53.60L913.80-53.60Q913.80-41.60 910.90-31.40Q908-21.20 901.80-13.70Q895.60-6.20 886-2Q876.40 2.20 863.20 2.20L863.20 2.20Q853 2.20 842.30 0.60Q831.60-1 822.60-5L822.60-5Q820.80-5.80 820.20-6.90Q819.60-8 819.60-9.80L819.60-9.80L819.60-142.60Q819.60-144.80 820.50-145.50Q821.40-146.20 823.60-146.20L823.60-146.20L839.20-146.20Q841.40-146.20 842.20-145.60Q843-145 843-142.60L843-142.60L843-103.80Q848.80-105.60 855.70-106.50Q862.60-107.40 868-107.40L868-107.40Q880-107.40 888.70-103.40Q897.40-99.40 902.90-92.20Q908.40-85 911.10-75.10Q913.80-65.20 913.80-53.60ZM889.80-52.60L889.80-52.60Q889.80-70.20 883-78.80Q876.20-87.40 864.20-87.40L864.20-87.40Q861-87.40 855.20-86.80Q849.40-86.20 843-84.20L843-84.20L843-20.20Q847.80-18.60 853-18.10Q858.20-17.60 862.20-17.60L862.20-17.60Q868.40-17.60 873.50-19.50Q878.60-21.40 882.20-25.60Q885.80-29.80 887.80-36.40Q889.80-43 889.80-52.60ZM1011.60-29.40L1011.60-29.40Q1011.60-21.40 1008.60-15.40Q1005.60-9.40 1000.30-5.50Q995.00-1.60 987.80 0.30Q980.60 2.20 972.20 2.20L972.20 2.20Q967.40 2.20 962.00 1.70Q956.60 1.20 951.20 0.20Q945.80-0.80 940.80-2.50Q935.80-4.20 931.60-6.60L931.60-6.60Q928.60-8.20 930.20-11.40L930.20-11.40L935.00-22.60Q936.00-24.40 937.00-24.90Q938.00-25.40 940.20-24.40L940.20-24.40Q947.40-21 956.20-19.10Q965.00-17.20 971.80-17.20L971.80-17.20Q980.20-17.20 984.40-20.50Q988.60-23.80 988.60-29L988.60-29Q988.60-34.80 983.20-38.20Q977.80-41.60 967.00-45.60L967.00-45.60Q958.80-48.60 952.70-51.60Q946.60-54.60 942.60-58.30Q938.60-62 936.50-66.60Q934.40-71.20 934.40-77.20L934.40-77.20Q934.40-83.80 936.80-89.30Q939.20-94.80 943.90-98.80Q948.60-102.80 955.60-105.10Q962.60-107.40 971.80-107.40L971.80-107.40Q980.20-107.40 988.60-105.90Q997.00-104.40 1004.80-101.20L1004.80-101.20Q1006.40-100.40 1006.70-99.20Q1007.00-98 1006.60-96.40L1006.60-96.40L1002.00-85Q1001.40-83.40 1000.50-83.20Q999.60-83 998.00-83.60L998.00-83.60Q990.20-86.40 984.30-87.40Q978.40-88.40 971.60-88.40L971.60-88.40Q964.20-88.40 960.80-85.30Q957.40-82.20 957.40-78.40L957.40-78.40Q957.40-75.60 958.50-73.60Q959.60-71.60 962.00-69.90Q964.40-68.20 968.30-66.40Q972.20-64.60 977.80-62.60L977.80-62.60Q984.20-60.20 990.30-57.50Q996.40-54.80 1001.10-51Q1005.80-47.20 1008.70-42Q1011.60-36.80 1011.60-29.40Z" fill="#ffffff" stroke="#000000" stroke-width="0" />
</svg>